<svg width="98" height="98" viewBox="0 0 98 98" fill="none" xmlns="http://www.w3.org/2000/svg">
<path d="M51.9453 49.3038C50.674 41.7923 47.1569 35.3733 42.2614 29.6412C41.7769 29.0731 41.236 28.5532 40.5854 27.8672C40.4339 28.4216 40.3495 28.6784 40.2942 28.9425C38.7688 36.1328 35.3651 42.3367 30.5123 47.8156C27.5487 51.1631 25.0189 54.7936 23.8646 59.2163C23.2667 61.5075 23.1478 63.7878 23.753 66.3757C23.9327 65.9674 24.028 65.8485 24.0334 65.726C24.2784 59.4214 27.1858 54.3508 31.2872 49.7838C34.6991 45.9845 37.7434 41.9111 39.7116 37.1436C40.374 35.5384 41.0473 33.435 41.6426 31.8199C42.6761 33.23 42.315 32.7835 42.3758 32.8352C42.2369 32.6547 42.5509 32.9822 42.3758 32.8352C47.8265 39.9167 50.8319 47.8483 50.7575 56.8616C50.6676 67.7314 46.7395 77.3472 41.158 86.4313C40.9693 86.7389 40.4775 87.5374 40.2424 87.747C40.0519 87.6145 40.433 87.8795 40.2424 87.747C38.4648 78.3426 39.1154 68.2514 40.5691 58.8724C35.8687 69.4482 37.2099 80.2446 39.4367 91.1162C48.3038 79.4397 53.7084 66.6552 52.379 51.7946" fill="#239038"/>
<path d="M36.5939 85.627C32.6176 81.8504 28.4272 79.0129 23.0808 78.2698C24.6996 79.5338 26.4472 80.6653 27.9091 82.09C30.6821 84.7922 33.3199 87.637 35.9523 90.478C36.6864 91.2702 36.2654 91.9362 34.9306 91.8827C32.5332 91.7856 30.1005 91.7312 27.7584 91.272C18.6 89.4763 11.593 84.4619 6.63853 76.5902C5.60953 74.9559 4.8464 73.1556 3.90451 71.4633C3.22033 70.2338 3.67947 69.7193 4.87907 69.2447C12.436 66.2548 19.8331 66.831 27.077 70.2156C28.7348 70.9906 30.3164 72.0196 31.742 73.1693C32.8435 74.0576 33.6466 75.3162 34.5821 76.4105C34.4823 76.4985 34.3816 76.5865 34.2818 76.6746C32.7383 75.4722 31.2628 74.1656 29.6377 73.0849C22.6334 68.4253 15.1373 67.3292 7.15031 70.192C5.54238 70.7683 5.44801 70.9425 6.19299 72.4751C9.36892 79.0057 14.1138 84.0808 20.5963 87.3629C24.5072 89.3429 28.7493 90.2485 33.2782 89.9871C28.7139 84.4574 23.2359 80.1617 16.4576 77.4604C22.0808 74.1801 34.5368 79.5728 36.5939 85.627Z" fill="#239038"/>
<path d="M76.0189 70.2855C75.4518 69.3363 74.8203 68.4253 74.1951 67.4598C75.2912 66.086 75.8139 64.5434 74.7513 63.0943C74.1179 62.2295 73.9864 61.5989 74.3021 60.6316C74.6097 59.6888 74.176 58.9166 73.2504 58.4792C71.3658 57.59 71.3658 57.59 72.5037 55.7978C72.6026 55.6417 72.7069 55.4884 72.7977 55.3269C74.3284 52.6056 73.5871 50.7681 70.6362 49.8017C68.4013 49.0703 66.1509 48.3571 63.9849 47.4515C61.8797 46.5713 60.5758 44.948 59.9079 42.6794C58.4897 37.8629 56.1367 33.5473 52.4363 30.0619C51.9681 29.6209 51.3928 29.2934 50.8674 28.9141C54.2729 33.7088 56.8854 38.7504 58.4688 44.3409C59.0051 46.2356 60.3172 47.7255 62.0775 48.5576C64.3651 49.6383 66.7434 50.5575 69.1453 51.357C72.059 52.327 72.3385 53.0393 70.4429 55.541C70.3313 55.688 70.1961 55.816 70.0791 55.9602C69.011 57.2787 69.2833 58.7115 70.7805 59.5445C71.2859 59.8258 71.8276 60.0409 72.4465 60.3294C71.8648 61.4963 71.344 62.539 70.9592 63.3112C71.8639 63.6669 72.9719 63.7522 73.2559 64.2812C73.9954 65.6568 72.5418 66.2176 71.6516 67.0715C72.4311 68.1921 73.1987 69.2774 73.9464 70.3771C75.5598 72.75 75.3393 73.9251 72.9428 75.5494C72.373 75.9359 71.7687 76.3315 71.1208 76.5339C68.6118 77.317 66.1073 78.1473 63.5485 78.7244C60.6801 79.3704 57.8499 80.012 55.6114 82.0763C53.1541 84.343 51.9708 87.0598 52.2195 90.2412C52.4245 90.1722 52.645 90.1232 52.8828 90.0996C52.9082 90.008 52.9282 89.9145 52.9563 89.8238C54.4072 84.9991 57.1739 81.5981 62.4704 80.7361C64.7907 80.3586 67.1318 79.8722 69.3332 79.0774C71.3476 78.3496 73.3294 77.336 75.0671 76.0893C77.0833 74.6447 77.2957 72.4206 76.0189 70.2855Z" fill="#239038"/>
<path d="M16.9159 56.4277L12.5685 56.6918L12.5277 56.0248L14.4169 55.9105L14.2826 53.7091L12.3934 53.8234L12.3525 53.1547L16.6999 52.8906L16.7408 53.5576L14.8461 53.6746L14.9804 55.876L16.8751 55.7617L16.9159 56.4277Z" fill="#239038"/>
<path d="M16.6945 50.7721L12.3435 50.5915L12.4587 47.8203L13.0241 47.8421L12.936 49.9482L14.2618 50.0035L14.3434 48.0426L14.9069 48.0671L14.8253 50.0262L16.1564 50.0834L16.2454 47.9528L16.8098 47.9746L16.6945 50.7721Z" fill="#239038"/>
<path d="M17.0004 45.973L12.6965 45.3042L12.9388 43.7462C12.9914 43.4068 13.0931 43.1346 13.2428 42.9295C13.3925 42.7226 13.5758 42.5793 13.7963 42.5003C14.0168 42.4214 14.2582 42.4014 14.5222 42.4432C14.7863 42.4831 15.0086 42.5756 15.191 42.7181C15.3725 42.8615 15.5022 43.0529 15.5785 43.2925C15.6547 43.5348 15.6656 43.8251 15.6129 44.1645L15.4306 45.3441L14.8716 45.2579L15.0458 44.1373C15.0785 43.924 15.0758 43.7435 15.0367 43.6001C14.9968 43.4567 14.9242 43.3451 14.8199 43.2635C14.7146 43.1845 14.5812 43.131 14.4206 43.1047C14.2582 43.0802 14.1121 43.0892 13.9823 43.1355C13.8535 43.18 13.7464 43.2653 13.662 43.3887C13.5785 43.5139 13.5186 43.6854 13.4851 43.9014L13.3562 44.7307L17.1038 45.3115L17.0004 45.973ZM15.3943 43.5121L17.504 42.7326L17.3869 43.4858L15.2808 44.2425L15.3943 43.5121Z" fill="#239038"/>
<path d="M17.8832 41.0788L13.7009 39.8592L14.1555 38.303C14.2436 38.0018 14.3642 37.7658 14.5194 37.5962C14.6746 37.4265 14.8488 37.3185 15.0421 37.2686C15.2372 37.2178 15.4368 37.2241 15.6437 37.284C15.8179 37.3348 15.9549 37.4092 16.0556 37.5109C16.1555 37.6098 16.2253 37.7241 16.2644 37.8539C16.3052 37.9836 16.3215 38.1179 16.317 38.2567L16.3578 38.2676C16.405 38.1288 16.4903 38.0036 16.6119 37.8938C16.7326 37.784 16.8823 37.7069 17.0601 37.6606C17.2362 37.6161 17.4331 37.6252 17.65 37.6896C17.8632 37.7513 18.0411 37.8593 18.1808 38.009C18.3205 38.1606 18.4086 38.3566 18.4458 38.597C18.4821 38.8366 18.4521 39.1233 18.3568 39.4509L17.8832 41.0788ZM15.6972 39.7449L15.9468 38.8865C15.9894 38.7431 15.9994 38.607 15.9785 38.4745C15.9576 38.342 15.9077 38.2277 15.8297 38.1315C15.7508 38.0344 15.6437 37.9664 15.5094 37.9264C15.337 37.8756 15.1736 37.8956 15.0212 37.9836C14.8679 38.0734 14.7553 38.2459 14.68 38.499L14.425 39.3747L15.6972 39.7449ZM17.5284 40.2794L17.7979 39.3547C17.8868 39.0462 17.8941 38.8112 17.8142 38.6442C17.7362 38.4772 17.6091 38.3693 17.4331 38.3166C17.3006 38.2794 17.1699 38.2767 17.0402 38.3121C16.9104 38.3475 16.7952 38.4201 16.6927 38.5253C16.591 38.6306 16.5157 38.7694 16.4649 38.9409L16.189 39.8892L17.5284 40.2794Z" fill="#239038"/>
<path d="M20.7797 33.38L20.4276 33.9943L17.4368 30.4527L17.8188 29.7812L22.3903 30.5607L22.0391 31.175L18.3242 30.4945L18.307 30.5235L20.7797 33.38ZM19.3568 32.4309L20.4984 30.4346L20.9784 30.7077L19.8387 32.704L19.3568 32.4309Z" fill="#239038"/>
<path d="M22.2786 23.6406L25.6406 26.4091L25.2495 26.8819L21.3549 26.587L21.3286 26.6196L23.794 28.6486L23.3702 29.1658L20.0083 26.3973L20.4012 25.92L24.3012 26.2149L24.3276 26.1841L21.8585 24.1506L22.2786 23.6406Z" fill="#239038"/>
<path d="M28.127 24.0494L27.0444 24.9868L24.1934 21.6965L25.3113 20.7283C25.638 20.4443 25.9773 20.2664 26.3258 20.1938C26.6742 20.1212 27.0181 20.1539 27.3557 20.2909C27.6932 20.4252 28.0108 20.6648 28.3066 21.006C28.6034 21.349 28.7948 21.6992 28.8819 22.0558C28.9681 22.4124 28.9491 22.76 28.8239 23.0994C28.6986 23.4396 28.4663 23.7563 28.127 24.0494ZM27.1724 24.1175L27.7223 23.6402C27.9772 23.4197 28.1478 23.1892 28.235 22.9487C28.3212 22.7064 28.3284 22.4605 28.2558 22.2074C28.1832 21.9542 28.0335 21.6965 27.8094 21.437C27.5852 21.1775 27.3539 20.9942 27.1152 20.8871C26.8757 20.7791 26.6334 20.751 26.3875 20.7991C26.1434 20.8472 25.8993 20.9796 25.6543 21.1884L25.0735 21.692L27.1724 24.1175Z" fill="#239038"/>
<path d="M33.6567 20.0513L31.6187 16.2021L33.0115 15.4643C33.3155 15.3019 33.5968 15.2248 33.8545 15.2266C34.1122 15.2284 34.34 15.2992 34.5387 15.4353C34.7383 15.5696 34.8998 15.7565 35.0251 15.9924C35.1503 16.2284 35.2129 16.4679 35.2129 16.7102C35.2129 16.9525 35.1412 17.1793 34.9997 17.3944C34.8563 17.6122 34.634 17.7991 34.3318 17.9597L33.3736 18.4679L33.1132 17.9751L34.0178 17.4951C34.2102 17.3935 34.3481 17.2773 34.4334 17.1494C34.5178 17.0196 34.5577 16.8835 34.5532 16.7402C34.5487 16.595 34.5078 16.4516 34.4307 16.3064C34.3536 16.1612 34.2583 16.0469 34.1422 15.9634C34.0251 15.8799 33.8908 15.8382 33.7374 15.8382C33.5832 15.8382 33.4081 15.8908 33.2112 15.9943L32.4707 16.3863L34.2456 19.7382L33.6567 20.0513Z" fill="#239038"/>
<path d="M38.1102 17.8438L36.5476 13.7786L37.1701 13.5391L38.5303 17.0761L40.4023 16.3566L40.6046 16.8847L38.1102 17.8438Z" fill="#239038"/>
<path d="M43.0013 16.1503L42.3135 16.3218L42.8008 11.7104L43.5494 11.5234L46.1509 15.3618L45.464 15.5333L43.3851 12.3791L43.3506 12.3882L43.0013 16.1503ZM42.7018 14.4662L44.9323 13.909L45.0666 14.4435L42.8361 15.0024L42.7018 14.4662Z" fill="#239038"/>
<path d="M50.824 10.2812L51.3757 14.6014L50.7668 14.6785L48.1326 11.7948L48.0918 11.7993L48.4956 14.9689L47.8332 15.0524L47.2815 10.7322L47.8949 10.6551L50.5327 13.5425L50.5736 13.5361L50.1698 10.3647L50.824 10.2812Z" fill="#239038"/>
<path d="M53.2585 10.6903L53.2622 10.125L56.6867 10.1468L56.6822 10.7121L55.302 10.703L55.2793 14.4933L54.6133 14.4887L54.636 10.6985L53.2585 10.6903Z" fill="#239038"/>
<path d="M60.4724 12.6719C65.4268 14.0874 70.1808 16.238 74.5236 19.0364C78.8538 21.8503 82.7293 25.3856 85.8517 29.4952C88.9841 33.5967 91.3651 38.2553 92.8596 43.1726C94.3795 48.0862 95.0283 53.2321 94.9412 58.3526C94.8704 63.4822 93.8741 68.6535 91.7353 73.3947C89.6446 78.1522 86.2945 82.3753 82.1431 85.5821C77.969 88.768 73.0001 90.9031 67.8378 91.8187C65.2481 92.2733 62.6574 92.5083 59.9969 92.3549C58.6939 92.2197 57.4063 92.0092 56.1332 91.7052C54.8673 91.3886 53.5988 90.9929 52.4654 90.2842L52.3484 90.2107L52.3584 90.0864C52.4083 89.434 52.5208 88.8124 52.6696 88.1899C52.8211 87.5702 53.0117 86.9595 53.2667 86.3733C53.7685 85.2037 54.4908 84.103 55.4853 83.2954C54.5488 84.1665 53.92 85.2917 53.509 86.4632C53.1006 87.6355 52.8611 88.8805 52.8202 90.1L52.7132 89.9031C53.7948 90.5038 55.037 90.8287 56.2784 91.071C57.5261 91.3024 58.7973 91.4439 60.0659 91.5092C62.5594 91.5129 65.1383 91.2171 67.5983 90.6699C70.0655 90.1109 72.4847 89.3433 74.7541 88.2635C77.0271 87.1954 79.1596 85.8652 81.1141 84.3253C85.0005 81.2129 88.0612 77.174 90.0366 72.6697C92.0257 68.1644 92.9576 63.2435 93.0765 58.3145C93.1745 53.3691 92.5883 48.3983 91.2172 43.6381C89.8325 38.8832 87.6547 34.3426 84.731 30.2865C81.8101 26.2285 78.1723 22.657 74.0463 19.7043C69.9249 16.7352 65.3025 14.4395 60.4724 12.6719Z" fill="#239038"/>
</svg>
