<svg width="47" height="35" viewBox="0 0 47 35" fill="none" xmlns="http://www.w3.org/2000/svg">
<path d="M-2.40654e-05 34.9516V28.8016C3.39998 28.4016 5.79998 27.1016 7.19998 24.9016C8.59998 22.7016 9.29998 19.2016 9.29998 14.4016L13.8 15.0016H0.149976V0.00155985H16.2V11.7016C16.2 18.1016 14.9 23.3516 12.3 27.4516C9.79998 31.5516 5.69998 34.0516 -2.40654e-05 34.9516ZM30.7324 34.9516V28.8016C34.1324 28.4016 36.5324 27.1016 37.9324 24.9016C39.3324 22.7016 40.0324 19.2016 40.0324 14.4016L44.5324 15.0016H30.8824V0.00155985H46.9324V11.7016C46.9324 18.1016 45.6324 23.3516 43.0324 27.4516C40.5324 31.5516 36.4324 34.0516 30.7324 34.9516Z" fill="#E6E6E6"/>
</svg>
